<svg xmlns="http://www.w3.org/2000/svg" viewBox="15.0 14.8 1529.5 406.0" width="1529.5" height="406.0">
<style>
    .em-text {
        fill: #0A1A3D;
    }
    @media (prefers-color-scheme: dark) {
        .em-text {
            fill: rgb(230, 235, 255);
        }
    }
</style>
<defs>
<linearGradient id="iconGrad" x1="30.0" y1="29.8" x2="401.5" y2="405.8" gradientUnits="userSpaceOnUse">
<stop offset="0%" stop-color="#5BB0FF"/>
<stop offset="50%" stop-color="#2E6BFF"/>
<stop offset="100%" stop-color="#2A1FD0"/>
</linearGradient>
<linearGradient id="textGrad" x1="1027.0" y1="190.8" x2="1529.5" y2="317.8" gradientUnits="userSpaceOnUse">
<stop offset="0%" stop-color="#3A8BFF"/>
<stop offset="100%" stop-color="#2A1FD0"/>
</linearGradient>
</defs>
<g fill="url(#iconGrad)">
<path d="M 205.5,30.69999999999999 C 169.9,35.099999999999966 138.5,48.299999999999955 110.7,70.69999999999999 C 102.80000000000001,77.0 102.2,78.09999999999997 104.4,81.5 C 106.9,85.29999999999995 109.2,84.59999999999997 118.30000000000001,77.19999999999999 C 166.4,38.69999999999999 234.8,29.5 287.7,54.5 C 296.90000000000003,58.799999999999955 296.90000000000003,58.799999999999955 299.40000000000003,54.89999999999998 C 302.8,49.799999999999955 303.2,50.39999999999998 293.8,46.0 C 266.90000000000003,33.5 231.70000000000002,27.399999999999977 205.5,30.69999999999999"/>
<path d="M 312.0,50.099999999999966 C 305.40000000000003,52.799999999999955 301.0,59.599999999999966 301.0,67.0 C 301.0,86.5 326.90000000000003,91.39999999999998 334.6,73.29999999999995 C 337.6,66.39999999999998 334.20000000000005,56.099999999999966 327.5,52.0 C 323.3,49.39999999999998 315.8,48.5 312.0,50.099999999999966"/>
<path d="M 54.7,114.0 C 33.7,119.29999999999995 23.6,145.7 36.0,162.8 C 49.1,180.89999999999998 75.9,180.2 87.7,161.39999999999998 C 90.5,156.89999999999998 90.5,156.89999999999998 132.0,157.2 C 171.9,157.5 173.70000000000002,157.59999999999997 178.10000000000002,159.59999999999997 C 187.0,163.8 187.5,164.5 211.70000000000002,222.5 C 225.70000000000002,256.0 226.60000000000002,257.5 234.0,257.5 C 240.70000000000002,257.5 241.20000000000002,256.9 253.9,233.89999999999998 C 259.8,223.29999999999998 265.1,214.5 265.7,214.29999999999998 C 266.2,214.1 272.7,228.2 280.1,245.6 C 294.40000000000003,279.4 295.1,280.4 301.7,280.2 C 307.20000000000005,280.0 309.1,278.1 315.3,265.9 C 318.6,259.6 328.8,240.1 338.0,222.5 C 347.20000000000005,204.89999999999998 356.20000000000005,187.79999999999998 357.8,184.5 C 360.90000000000003,178.5 360.90000000000003,178.5 361.0,234.1 C 361.0,289.7 361.0,289.7 357.1,293.79999999999995 C 349.5,301.79999999999995 349.5,312.8 357.20000000000005,321.5 C 364.1,329.5 377.90000000000003,329.2 385.6,321.0 C 392.6,313.7 392.8,299.6 386.1,293.6 C 384.0,291.7 384.0,291.7 384.0,232.6 C 384.0,173.5 384.0,173.5 388.70000000000005,170.0 C 412.6,152.09999999999997 400.90000000000003,113.39999999999998 371.5,113.5 C 350.20000000000005,113.59999999999997 335.90000000000003,134.3 342.5,155.39999999999998 C 344.20000000000005,160.89999999999998 344.20000000000005,160.89999999999998 337.90000000000003,173.2 C 323.1,202.0 303.5,238.89999999999998 302.90000000000003,239.0 C 302.1,239.0 300.40000000000003,235.2 287.6,204.39999999999998 C 274.90000000000003,173.89999999999998 274.3,173.0 266.6,173.0 C 261.40000000000003,173.0 260.1,174.7 247.5,197.2 C 241.5,208.0 236.20000000000002,216.6 235.70000000000002,216.1 C 235.3,215.7 232.8,210.2 230.10000000000002,203.89999999999998 C 209.10000000000002,154.39999999999998 203.8,145.5 191.20000000000002,138.7 C 181.3,133.3 178.20000000000002,133.0 132.3,133.0 C 90.0,133.0 90.0,133.0 88.10000000000001,129.2 C 82.2,117.89999999999998 67.0,110.89999999999998 54.7,114.0 M 69.3,137.0 C 77.30000000000001,145.89999999999998 67.5,159.7 56.800000000000004,154.59999999999997 C 50.7,151.7 48.6,144.8 52.0,139.2 C 56.1,132.59999999999997 64.3,131.5 69.3,137.0 M 377.1,135.3 C 383.20000000000005,139.39999999999998 383.6,149.0 377.90000000000003,153.09999999999997 C 372.3,157.09999999999997 363.1,155.0 360.90000000000003,149.3 C 356.90000000000003,138.59999999999997 367.90000000000003,129.09999999999997 377.1,135.3"/>
<path d="M 88.2,208.0 C 81.5,212.1 80.4,221.1 86.0,227.29999999999998 C 88.80000000000001,230.5 88.80000000000001,230.5 129.20000000000002,230.79999999999998 C 173.70000000000002,231.1 175.9,230.89999999999998 179.0,225.7 C 182.8,219.6 181.10000000000002,212.39999999999998 175.10000000000002,208.29999999999998 C 171.70000000000002,206.0 171.70000000000002,206.0 131.6,206.0 C 93.10000000000001,206.0 91.4,206.1 88.2,208.0"/>
<path d="M 205.20000000000002,234.2 C 204.70000000000002,234.89999999999998 200.5,243.1 196.10000000000002,252.39999999999998 C 186.5,272.4 184.4,275.5 177.60000000000002,278.6 C 172.5,281.0 172.5,281.0 130.9,281.0 C 89.4,281.0 89.4,281.0 85.4,275.29999999999995 C 68.60000000000001,250.79999999999998 30.0,263.9 30.0,293.9 C 30.0,324.8 70.10000000000001,336.9 86.2,310.9 C 89.30000000000001,306.0 89.30000000000001,306.0 130.9,306.0 C 183.20000000000002,306.0 186.4,305.29999999999995 199.70000000000002,291.9 C 205.3,286.29999999999995 217.9,264.9 218.0,261.0 C 218.10000000000002,259.0 207.70000000000002,233.0 206.9,233.0 C 206.5,233.0 205.8,233.6 205.20000000000002,234.2 M 67.5,285.2 C 75.10000000000001,291.9 70.5,304.5 60.5,304.5 C 50.7,304.5 46.0,292.6 53.1,285.9 C 57.1,282.1 63.6,281.79999999999995 67.5,285.2"/>
<path d="M 310.5,352.9 C 294.0,356.9 291.1,378.8 306.0,386.8 C 318.20000000000005,393.3 332.0,384.6 332.0,370.4 C 332.0,358.9 321.40000000000003,350.2 310.5,352.9"/>
<path d="M 100.2,354.2 C 96.10000000000001,358.3 103.2,365.9 122.7,378.3 C 164.70000000000002,405.1 219.5,413.0 267.1,399.0 C 276.8,396.2 296.0,388.1 296.0,386.9 C 296.0,386.0 293.3,380.1 292.5,379.2 C 292.3,379.0 288.6,380.4 284.3,382.3 C 229.10000000000002,406.6 156.4,396.3 111.80000000000001,357.9 C 106.10000000000001,353.0 102.60000000000001,351.8 100.2,354.2"/>
</g>
<g class="em-text">
<path d="M 481.0,217.5 L 481.0,279.0 L 519.8000000000001,278.79999999999995 L 558.5,278.5 L 558.5,268.5 L 558.5,258.5 L 530.3000000000001,258.2 L 502.0,258.0 L 502.0,242.5 L 502.0,227.0 L 526.5,227.0 L 551.1,227.0 L 550.8000000000001,216.7 L 550.5,206.5 L 526.3000000000001,206.2 L 502.0,206.0 L 502.0,191.0 L 502.0,176.0 L 530.5,176.0 L 559.0,176.0 L 559.0,166.0 L 559.0,156.0 L 520.0,156.0 L 481.0,156.0 L 481.0,217.5"/>
<path d="M 837.6,167.89999999999998 C 837.3000000000001,168.39999999999998 837.3000000000001,172.59999999999997 837.6,177.3 C 838.4000000000001,190.2 836.5,193.0 826.9000000000001,193.0 C 822.0,193.0 822.0,193.0 822.0,202.0 C 822.0,210.89999999999998 822.0,210.89999999999998 829.7,211.2 L 837.4000000000001,211.5 L 837.6,236.2 C 837.9000000000001,264.29999999999995 838.4000000000001,266.6 845.7,273.1 C 850.8000000000001,277.79999999999995 855.7,279.4 864.5,279.4 C 877.1,279.4 877.0,279.4 877.0,269.0 C 877.0,260.1 877.0,260.1 869.9000000000001,260.29999999999995 C 863.3000000000001,260.5 862.7,260.29999999999995 860.4000000000001,257.7 C 858.0,254.89999999999998 858.0,254.7 858.0,232.89999999999998 L 858.0,211.0 L 867.5,211.0 C 877.0,211.0 877.0,211.0 877.0,202.0 C 877.0,193.0 877.0,193.0 867.5,193.0 L 858.1,193.0 L 857.8000000000001,180.5 L 857.5,167.89999999999998 L 847.8000000000001,167.5 C 842.4000000000001,167.2 837.9000000000001,167.39999999999998 837.6,167.89999999999998"/>
<path d="M 675.3000000000001,192.89999999999998 C 640.6,205.7 637.3000000000001,259.29999999999995 670.2,276.1 C 684.1,283.2 701.5,282.2 714.5,273.6 C 719.5,270.29999999999995 726.9000000000001,261.9 727.0,259.5 C 727.0,258.29999999999995 712.4000000000001,249.7 711.1,250.2 C 710.5,250.29999999999998 709.1,252.0 707.8000000000001,253.89999999999998 C 699.7,265.9 677.7,264.2 671.1,251.1 C 666.2,241.39999999999998 664.3000000000001,242.0 698.6,242.0 L 729.3000000000001,242.0 L 728.8000000000001,231.2 C 727.9000000000001,213.29999999999998 720.9000000000001,201.29999999999998 707.3000000000001,194.5 C 699.6,190.6 683.6,189.79999999999998 675.3000000000001,192.89999999999998 M 698.7,211.1 C 703.6,213.39999999999998 706.9000000000001,217.5 708.0,222.6 C 708.8000000000001,226.0 708.8000000000001,226.0 688.9000000000001,226.0 C 675.9000000000001,226.0 669.0,225.6 669.0,225.0 C 669.0,222.5 672.0,217.2 674.9000000000001,214.5 C 680.9000000000001,208.79999999999998 690.9000000000001,207.29999999999998 698.7,211.1"/>
<path d="M 771.5,193.39999999999998 C 768.7,194.6 765.0,197.1 763.2,198.89999999999998 C 760.0,202.2 760.0,202.2 760.0,197.6 C 760.0,193.0 760.0,193.0 750.0,193.0 L 740.0,193.0 L 740.2,235.7 L 740.5,278.5 L 750.3000000000001,278.79999999999995 L 760.0,279.1 L 760.0,253.79999999999998 C 760.0,238.6 760.4000000000001,226.89999999999998 761.1,224.5 C 764.3000000000001,212.7 776.2,207.0 786.8000000000001,212.1 C 794.4000000000001,215.79999999999998 794.8000000000001,217.79999999999998 795.2,250.5 L 795.5,278.5 L 805.3000000000001,278.5 L 815.1,278.5 L 815.1,247.5 C 815.2,213.7 814.8000000000001,210.6 809.2,203.0 C 801.0,191.6 784.3000000000001,187.39999999999998 771.5,193.39999999999998"/>
<path d="M 562.0,193.7 C 562.0,194.2 567.4,208.7 574.1,226.0 C 580.7,243.29999999999998 588.0,262.29999999999995 590.2,268.2 C 594.3000000000001,279.0 594.3000000000001,279.0 604.5,279.0 C 615.8000000000001,279.0 615.4000000000001,279.4 621.1,263.5 C 622.0,260.7 625.8000000000001,250.79999999999998 629.5,241.5 C 633.2,232.1 637.0,222.2 638.0,219.5 C 639.9000000000001,214.5 646.2,198.0 647.5,194.7 C 648.2,193.1 647.3000000000001,193.0 637.4000000000001,193.0 L 626.5,193.0 L 620.3000000000001,209.79999999999998 C 616.9000000000001,219.0 612.0,232.29999999999998 609.4,239.39999999999998 L 604.7,252.29999999999998 L 601.9,244.89999999999998 C 594.6,225.6 584.0,195.5 584.0,194.29999999999998 C 584.0,193.29999999999998 581.5,193.0 573.0,193.0 C 567.0,193.0 562.0,193.29999999999998 562.0,193.7"/>
</g>
<g fill="url(#textGrad)">
<path d="M 893.0,217.6 L 893.0,279.2 L 903.3000000000001,278.79999999999995 L 913.5,278.5 L 914.0,235.79999999999998 L 914.5,193.0 L 923.4000000000001,207.29999999999998 C 928.3000000000001,215.1 936.2,227.7 940.9000000000001,235.2 C 949.3000000000001,248.89999999999998 949.4000000000001,249.0 953.1,249.0 C 957.3000000000001,249.0 954.7,252.6 977.1,216.0 L 991.5,192.6 L 992.0,235.5 L 992.5,278.5 L 1002.8000000000001,278.79999999999995 L 1013.0,279.1 L 1013.0,217.5 L 1013.0,156.0 L 1002.7,156.0 C 994.0,156.0 992.1,156.3 990.8000000000001,157.7 C 989.6,159.2 961.8000000000001,203.0 955.3000000000001,213.79999999999998 C 952.8000000000001,217.79999999999998 955.3000000000001,221.0 933.1,185.2 L 914.9000000000001,156.0 L 903.9000000000001,156.0 L 893.0,156.0 L 893.0,217.6"/>
<path d="M 1051.0,192.5 C 1044.5,194.6 1036.2,200.7 1032.3,206.39999999999998 C 1028.4,212.1 1028.1000000000001,211.6 1038.2,216.79999999999998 C 1046.0,220.79999999999998 1046.0,220.79999999999998 1048.7,216.79999999999998 C 1057.5,203.89999999999998 1077.2,207.0 1079.6000000000001,221.7 C 1080.2,225.89999999999998 1080.2,225.89999999999998 1066.9,225.7 C 1051.8,225.5 1045.2,227.0 1037.1000000000001,232.39999999999998 C 1025.8,240.0 1023.6,258.0 1032.5,270.0 C 1042.2,283.1 1067.5,284.2 1078.5,272.0 C 1080.5,269.79999999999995 1080.5,269.79999999999995 1081.0,274.1 C 1081.5,278.5 1081.5,278.5 1087.5,278.79999999999995 C 1090.8,279.0 1095.5,278.79999999999995 1097.8,278.5 C 1102.2,277.9 1102.2,277.9 1101.5,272.2 C 1101.2,269.1 1100.6000000000001,254.79999999999998 1100.2,240.5 C 1099.5,216.1 1099.4,214.2 1097.1000000000001,209.29999999999998 C 1094.4,203.1 1087.7,196.7 1081.2,193.7 C 1075.1000000000001,191.0 1057.9,190.29999999999998 1051.0,192.5 M 1079.1000000000001,242.7 C 1079.8,253.6 1074.7,260.7 1065.0,262.9 C 1048.9,266.5 1039.9,249.5 1054.3,242.89999999999998 C 1060.3,240.2 1078.9,240.1 1079.1000000000001,242.7"/>
<path d="M 1150.7,192.39999999999998 C 1146.1000000000001,194.1 1139.0,198.7 1139.0,200.0 C 1139.0,200.6 1138.6000000000001,201.0 1138.0,201.0 C 1137.5,201.0 1137.1000000000001,200.7 1137.1000000000001,200.2 C 1138.2,193.5 1137.5,193.0 1127.0,193.0 L 1117.0,193.0 L 1117.2,235.7 L 1117.5,278.5 L 1127.3,278.7 C 1134.0,278.79999999999995 1137.0,278.5 1137.1000000000001,277.7 C 1137.1000000000001,277.0 1137.2,264.79999999999995 1137.3,250.5 C 1137.5,226.0 1137.6000000000001,224.29999999999998 1139.6000000000001,220.5 C 1146.3,208.1 1163.1000000000001,206.2 1169.5,217.1 C 1171.3,220.2 1171.5,222.79999999999998 1172.0,249.5 L 1172.5,278.5 L 1182.5,278.5 L 1192.5,278.5 L 1192.5,247.0 C 1192.4,211.79999999999998 1192.0,209.29999999999998 1184.8,200.6 C 1178.0,192.29999999999998 1161.9,188.5 1150.7,192.39999999999998"/>
<path d="M 1228.3,192.89999999999998 C 1219.6000000000001,195.89999999999998 1207.0,206.79999999999998 1207.0,211.39999999999998 C 1207.0,212.0 1210.8,214.39999999999998 1215.4,216.7 C 1223.8,220.89999999999998 1223.8,220.89999999999998 1226.1000000000001,217.29999999999998 C 1229.8000000000002,211.7 1233.2,209.7 1239.8000000000002,209.2 C 1250.2,208.5 1257.0,213.6 1257.0,222.39999999999998 C 1257.0,226.29999999999998 1257.0,226.29999999999998 1247.7,225.7 C 1216.7,223.7 1198.8,238.6 1205.3,261.1 C 1211.0,280.7 1239.2,287.6 1254.7,273.2 C 1257.9,270.2 1257.9,270.2 1258.7,274.29999999999995 C 1259.6000000000001,278.5 1259.6000000000001,278.5 1269.0,278.5 C 1278.5,278.5 1278.5,278.5 1278.3000000000002,272.5 C 1278.2,269.2 1277.9,255.5 1277.7,242.0 C 1277.2,215.6 1276.6000000000001,211.89999999999998 1272.2,204.89999999999998 C 1264.7,193.1 1244.0,187.39999999999998 1228.3,192.89999999999998 M 1257.0,245.5 C 1257.0,254.0 1251.7,260.9 1243.7,263.1 C 1225.6000000000001,267.9 1216.1000000000001,247.29999999999998 1233.9,242.0 C 1235.3000000000002,241.5 1241.1000000000001,241.1 1246.8000000000002,241.1 C 1257.0,241.0 1257.0,241.0 1257.0,245.5"/>
<path d="M 1317.0,192.89999999999998 C 1291.5,202.89999999999998 1281.6000000000001,232.7 1295.2,258.2 C 1306.2,278.9 1334.8000000000002,285.5 1351.3000000000002,271.0 C 1355.0,267.79999999999995 1355.0,267.79999999999995 1355.0,275.2 C 1355.0,289.29999999999995 1348.3000000000002,297.29999999999995 1335.3000000000002,298.6 C 1325.4,299.7 1317.7,296.1 1311.7,287.6 C 1310.4,285.79999999999995 1310.0,285.9 1301.6000000000001,289.79999999999995 C 1292.9,293.9 1292.9,293.9 1294.7,297.0 C 1311.0,324.8 1356.7,324.7 1370.2,296.79999999999995 C 1374.7,287.6 1375.0,283.6 1375.0,237.0 L 1375.0,193.0 L 1365.0,193.0 C 1355.0,193.0 1355.0,193.0 1355.0,197.0 C 1355.0,201.1 1355.0,201.1 1351.2,198.0 C 1342.6000000000001,191.2 1327.2,188.79999999999998 1317.0,192.89999999999998 M 1345.3000000000002,213.6 C 1362.7,225.89999999999998 1356.7,256.4 1336.4,259.5 C 1309.6000000000001,263.5 1299.3000000000002,223.39999999999998 1324.0,211.29999999999998 C 1328.7,209.0 1340.5,210.29999999999998 1345.3000000000002,213.6"/>
<path d="M 1416.3000000000002,192.39999999999998 C 1390.7,200.7 1379.3000000000002,232.89999999999998 1392.6000000000001,259.2 C 1404.3000000000002,282.4 1438.8000000000002,288.0 1458.4,270.0 C 1462.7,266.0 1467.7,259.29999999999995 1466.9,258.6 C 1465.7,257.5 1451.7,250.0 1450.9,250.0 C 1450.4,250.0 1449.4,251.39999999999998 1448.5,253.0 C 1441.6000000000001,266.4 1417.0,264.9 1410.1000000000001,250.7 C 1405.6000000000001,241.5 1403.8000000000002,242.1 1438.3000000000002,241.79999999999998 C 1468.5,241.5 1468.5,241.5 1468.8000000000002,236.0 C 1469.8000000000002,217.79999999999998 1461.5,201.79999999999998 1447.3000000000002,194.79999999999998 C 1439.5,191.0 1424.3000000000002,189.79999999999998 1416.3000000000002,192.39999999999998 M 1438.8000000000002,211.1 C 1443.3000000000002,213.29999999999998 1447.3000000000002,218.29999999999998 1448.4,223.2 C 1449.0,226.0 1449.0,226.0 1428.5,226.0 C 1407.9,226.0 1407.9,226.0 1408.5,223.7 C 1412.0,211.7 1427.0,205.39999999999998 1438.8000000000002,211.1"/>
<path d="M 1516.0,191.89999999999998 C 1511.2,193.39999999999998 1507.3000000000002,195.89999999999998 1504.1000000000001,199.5 C 1501.0,203.1 1501.0,203.1 1501.0,198.0 C 1501.0,193.0 1501.0,193.0 1491.0,193.0 L 1481.0,193.0 L 1481.2,235.7 L 1481.5,278.5 L 1491.5,278.5 L 1501.5,278.5 L 1501.6000000000001,253.2 C 1501.7,232.39999999999998 1502.0,227.2 1503.4,223.7 C 1506.6000000000001,215.29999999999998 1514.2,210.7 1523.9,211.1 C 1529.5,211.39999999999998 1529.5,211.39999999999998 1529.5,201.39999999999998 C 1529.5,191.5 1529.5,191.5 1524.0,191.29999999999998 C 1521.0,191.2 1517.4,191.5 1516.0,191.89999999999998"/>
</g>
</svg>
